<?xml version="1.0" standalone="no"?>
<!DOCTYPE svg PUBLIC "-//W3C//DTD SVG 20010904//EN"
 "http://www.w3.org/TR/2001/REC-SVG-20010904/DTD/svg10.dtd">
<svg version="1.0" xmlns="http://www.w3.org/2000/svg"
 width="2000.000000pt" height="1500.000000pt" viewBox="0 0 2000.000000 1500.000000"
 preserveAspectRatio="xMidYMid meet">

<g transform="translate(0.000000,1500.000000) scale(0.100000,-0.100000)"
fill="#000000" stroke="none">
<path d="M11435 12165 c-887 -74 -1709 -387 -2420 -920 -360 -270 -713 -626
-966 -975 -136 -186 -287 -428 -363 -577 l-26 -53 83 0 84 0 50 88 c504 885
1278 1570 2206 1956 597 247 1202 360 1852 343 690 -18 1315 -176 1930 -487
1237 -625 2124 -1794 2394 -3157 57 -289 81 -548 81 -878 0 -415 -37 -724
-136 -1119 -119 -476 -344 -981 -625 -1398 -435 -648 -1043 -1185 -1736 -1532
-863 -432 -1866 -576 -2823 -406 -1034 184 -1990 739 -2665 1545 -174 208
-327 426 -454 648 l-74 127 -84 0 -85 0 51 -95 c304 -568 771 -1109 1306
-1510 813 -610 1785 -934 2800 -935 1268 0 2460 501 3345 1406 772 790 1229
1793 1320 2899 14 167 14 573 0 740 -81 983 -443 1867 -1078 2635 -123 148
-434 459 -582 582 -772 640 -1680 1005 -2675 1078 -183 13 -521 11 -710 -5z"/>
<path d="M6150 9194 c-109 -21 -405 -67 -666 -104 l-81 -12 -13 -119 c-7 -66
-10 -123 -6 -126 3 -3 47 -6 98 -8 113 -2 158 -20 185 -73 17 -35 18 -96 18
-1262 0 -1159 -1 -1228 -18 -1272 -27 -70 -87 -114 -193 -143 -9 -3 -47 -265
-39 -273 1 -2 70 5 151 15 122 15 215 18 515 16 l366 -2 22 130 c13 71 21 136
18 143 -5 12 -24 13 -99 9 -111 -7 -145 6 -174 64 -18 36 -19 66 -17 563 5
1137 51 2046 119 2340 12 53 13 72 3 103 -15 45 -13 44 -189 11z"/>
<path d="M10910 9204 c-59 -11 -562 -91 -751 -120 l-37 -5 -12 -114 c-7 -62
-10 -119 -8 -125 2 -8 37 -13 105 -14 116 -1 143 -14 178 -82 20 -38 20 -62
23 -1433 3 -1618 -12 -1441 119 -1460 429 -63 731 -71 924 -27 374 87 671 354
798 718 53 152 66 241 65 453 0 169 -3 203 -27 302 -55 238 -169 422 -332 538
-123 88 -234 128 -401 146 l-106 11 -85 -42 c-46 -23 -154 -88 -239 -146 -86
-57 -160 -104 -165 -104 -5 0 -7 12 -4 28 2 15 7 128 10 252 13 525 52 1013
90 1120 12 34 13 50 3 81 -13 45 -21 46 -148 23z m531 -1677 c141 -69 252
-261 288 -497 29 -184 10 -445 -40 -574 -48 -122 -147 -229 -247 -266 -113
-43 -310 -34 -457 21 l-54 20 6 582 5 582 36 33 c48 44 113 81 192 109 88 32
194 28 271 -10z"/>
<path d="M9313 9051 c-89 -30 -150 -89 -195 -187 -33 -71 -33 -227 0 -299 44
-96 113 -147 224 -164 156 -26 302 40 370 166 100 185 29 430 -141 488 -61 21
-192 19 -258 -4z"/>
<path d="M7568 7989 c-66 -10 -132 -33 -281 -95 -128 -55 -447 -211 -480 -236
-16 -12 -15 -21 21 -147 29 -102 43 -136 57 -141 13 -5 40 7 85 35 197 128
387 187 534 166 157 -22 263 -109 308 -253 22 -72 26 -266 6 -273 -7 -3 -214
-52 -459 -109 -246 -57 -461 -112 -479 -121 -55 -28 -120 -97 -151 -156 -40
-80 -53 -171 -39 -282 21 -173 73 -281 189 -397 117 -117 241 -170 401 -174
64 -1 84 3 133 27 80 40 203 133 306 233 108 103 119 103 145 3 43 -168 171
-265 366 -276 78 -5 90 -3 136 20 94 47 226 186 328 345 l47 72 -27 38 c-16
20 -31 41 -34 45 -4 4 -38 -7 -76 -25 -59 -28 -80 -33 -146 -33 -74 0 -78 1
-112 34 -20 19 -41 50 -47 70 -16 46 -7 212 26 496 52 453 57 500 51 577 -22
280 -207 480 -497 538 -109 21 -244 30 -311 19z m247 -1401 l-7 -213 -30 -27
c-76 -67 -252 -126 -338 -113 -136 21 -228 142 -218 291 4 65 24 100 72 126
21 11 492 146 514 147 11 1 13 -37 7 -211z"/>
<path d="M13425 7983 c-121 -26 -414 -151 -650 -278 l-103 -55 18 -63 c10 -34
28 -95 40 -134 28 -99 39 -102 125 -47 80 51 206 113 280 137 129 42 273 41
371 -2 100 -44 181 -154 203 -275 12 -68 14 -195 3 -212 -4 -6 -207 -57 -452
-114 -245 -57 -458 -109 -475 -116 -174 -73 -250 -273 -199 -522 57 -280 298
-490 569 -495 71 -2 87 2 145 29 75 36 187 120 311 234 48 44 90 80 93 80 12
0 36 -33 36 -50 0 -43 44 -132 90 -183 76 -83 184 -127 315 -127 60 0 78 5
123 31 92 52 245 223 329 366 l25 44 -28 40 c-15 22 -30 42 -34 44 -3 2 -35
-10 -71 -27 -90 -43 -189 -50 -238 -16 -98 66 -99 103 -5 898 37 313 -5 489
-151 635 -30 29 -82 69 -117 89 -76 42 -214 83 -306 91 -156 13 -180 13 -247
-2z m273 -1400 c-6 -211 -7 -217 -30 -235 -43 -34 -163 -88 -232 -105 -82 -20
-156 -9 -218 32 -112 74 -154 272 -75 350 28 27 62 39 257 94 124 34 236 66
250 71 58 20 56 29 48 -207z"/>
<path d="M9685 7978 c-60 -14 -577 -104 -681 -119 l-91 -12 -12 -106 c-17
-162 -26 -146 83 -146 106 0 133 -12 171 -76 19 -33 20 -52 20 -649 l0 -615
-22 -42 c-30 -56 -87 -100 -153 -120 -30 -9 -59 -21 -65 -25 -8 -8 -47 -269
-41 -275 1 -2 51 4 112 12 246 32 368 38 655 31 l286 -6 22 136 c12 74 19 139
16 144 -3 5 -47 8 -98 7 -107 -2 -138 11 -165 71 -15 33 -17 79 -15 382 4 614
37 1108 88 1305 14 52 14 59 -2 86 -19 32 -37 34 -108 17z"/>
</g>
</svg>
